<svg width="21" height="21" viewBox="0 0 21 21" fill="none" xmlns="http://www.w3.org/2000/svg">
<rect x="3" y="3" width="15" height="15" rx="3" fill="#FFB770"/>
<path d="M8.91978 12.2539L14.4006 6.21381C14.5299 6.07127 14.6808 6 14.8533 6C15.0257 6 15.1766 6.07127 15.306 6.21381C15.4353 6.35635 15.5 6.52561 15.5 6.7216C15.5 6.91759 15.4353 7.08686 15.306 7.2294L9.37247 13.7862C9.24313 13.9287 9.09223 14 8.91978 14C8.74732 14 8.59642 13.9287 8.46708 13.7862L5.68625 10.7216C5.55691 10.5791 5.49493 10.4098 5.50032 10.2138C5.50571 10.0178 5.57308 9.84855 5.70242 9.70601C5.83176 9.56347 5.98535 9.4922 6.1632 9.4922C6.34104 9.4922 6.49463 9.56347 6.62397 9.70601L8.91978 12.2539Z" fill="#35273A"/>
</svg>
